<?xml version="1.0" encoding="utf-8"?>
<!-- Generator: Adobe Illustrator 21.0.2, SVG Export Plug-In . SVG Version: 6.00 Build 0)  -->
<svg version="1.1" id="Layer_1" xmlns="http://www.w3.org/2000/svg" xmlns:xlink="http://www.w3.org/1999/xlink" x="0px" y="0px"
	 viewBox="0 0 500 500" style="enable-background:new 0 0 500 500;" xml:space="preserve">
<style type="text/css">
	.st0{fill:#FFEC85;}
	.st1{fill:#FFFFFF;stroke:#FFCA61;stroke-width:5;stroke-miterlimit:10;}
	.st2{fill:#FFFFFF;}
	.st3{fill:#FFCA61;}
</style>
<g>
	<rect x="0.5" y="0.5" class="st0" width="499" height="499"/>
	<path d="M499,1v498H1V1H499 M500,0H0v500h500V0L500,0z"/>
</g>
<path class="st1" d="M350,102.7l-69.1-10L250,30l-30.9,62.6l-69.1,10l50,48.7l-11.8,68.8l61.8-32.5l61.8,32.5L300,151.4L350,102.7z"
	/>
<g>
	<g>
		<g>
			<g>
				<path class="st2" d="M188,335.9l-0.7-1.2c-1.4-2.5-3.2-8.7-6.1-21.4c-2.4-11-6-14.6-15-14.9l-8,0v37.6H142v-90.1l2-0.4
					c5.7-1.2,13.9-1.9,22-1.9c12.6,0,20.9,2.4,26.8,7.7c4.9,4.3,7.6,10.9,7.6,18.3c0,9.9-4.9,18-13.4,22.5c4.7,3.3,8,9,9.8,16.9
					c2.6,11.2,4.8,20,6.5,23.2l2,3.7H188z M167.2,284.8c10.5,0,17.1-5.4,17.1-14c0-9-5.9-13.6-17.5-13.7c-3.7,0-6.6,0.3-8.6,0.6
					v27.1H167.2z"/>
				<path class="st3" d="M166,246c12,0,19.7,2.2,25.1,7.1c4.4,3.9,6.8,9.8,6.8,16.5c0,11.5-7.2,19-16.3,22.1v0.4
					c6.7,2.3,10.7,8.5,12.7,17.5c2.8,12.1,4.9,20.5,6.7,23.8h-11.6c-1.4-2.4-3.3-9.9-5.8-20.7c-2.6-12-7.2-16.5-17.4-16.9h-10.6
					v37.6h-11.2v-85.6C150.2,246.6,158.3,246,166,246 M155.7,287.3h11.5c12,0,19.6-6.6,19.6-16.5c0-11.2-8.1-16.1-20-16.2
					c-5.4,0-9.3,0.5-11.1,1V287.3 M166,241c-8.3,0-16.7,0.7-22.5,1.9l-4,0.8v4.1v85.6v5h5h11.2h5v-5v-32.6h5.5
					c6.8,0.3,10.3,2.2,12.6,12.9l0,0l0,0c3,13.4,4.7,19.4,6.3,22.1l1.4,2.5h2.9H201h8.4l-4-7.4c-1.7-3.1-4.3-14.4-6.2-22.6
					c-1.6-6.9-4.3-12.3-8-16.1c7.4-5.2,11.7-13.4,11.7-22.8c0-8.2-3-15.4-8.5-20.2C188.1,243.6,179.3,241,166,241L166,241z
					 M160.7,259.9c1.6-0.2,3.6-0.3,6-0.3c15,0.2,15,8.5,15,11.2c0,7.2-5.4,11.5-14.6,11.5h-6.5V259.9L160.7,259.9z"/>
			</g>
			<g>
				<path class="st2" d="M212.2,335.9v-67.3h16.3v67.3H212.2z M220.1,263c-5.3,0-9.3-4.1-9.3-9.5c0-5.5,4.1-9.6,9.6-9.6
					c5.5,0,9.4,4,9.4,9.6c0.1,2.5-0.8,4.8-2.5,6.6C225.5,262,222.9,263,220.1,263z"/>
				<path class="st3" d="M220.3,246.5c4.2,0,6.9,3.1,6.9,7.1c0.1,3.9-2.7,7-7.2,7c-4,0-6.8-3.1-6.8-7
					C213.3,249.6,216.2,246.5,220.3,246.5 M226,271.1v62.3h-11.3v-62.3H226 M220.3,241.5c-6.8,0-12.1,5.3-12.1,12.1
					c0,6.7,5.2,12,11.8,12c3.5,0,6.7-1.3,9-3.6c2.2-2.2,3.3-5.2,3.2-8.4C232.2,246.7,227.1,241.5,220.3,241.5L220.3,241.5z
					 M231,266.1h-5h-11.3h-5v5v62.3v5h5H226h5v-5v-62.3V266.1L231,266.1z"/>
			</g>
			<g>
				<path class="st2" d="M271.3,337.2c-20,0-33.5-13.8-33.5-34.3c0-20.9,14.8-35.6,36-35.6c7.3,0,13.6,1.9,16.8,3.5l1.9,0.9
					l-4.1,13.8l-2.7-1.6c-2.1-1.2-5.9-2.6-11.9-2.6c-11.9,0-19.5,8.3-19.5,21.1c0,12.4,7.7,20.8,19.1,20.8c5.9,0,9.7-1.5,12.9-2.9
					l2.8-1.2l3,13.3l-1.7,0.9C286.9,335.1,279.9,337.2,271.3,337.2z"/>
				<path class="st3" d="M273.7,269.8c6.7,0,12.6,1.7,15.7,3.2l-2.6,8.8c-2.7-1.5-7-3-13.1-3c-14.3,0-22,10.6-22,23.6
					c0,14.4,9.3,23.3,21.6,23.3c6.4,0,10.7-1.7,13.9-3.1l1.9,8.5c-3,1.5-9.5,3.6-17.9,3.6c-18.8,0-31-12.7-31-31.8
					C240.3,283.7,253.4,269.8,273.7,269.8 M273.7,264.8c-22.6,0-38.5,15.7-38.5,38.1c0,22,14.5,36.8,36,36.8c9,0,16.3-2.2,20.2-4.2
					l3.4-1.8l-0.9-3.8l-1.9-8.5l-1.3-5.9l-5.5,2.4c-3.1,1.3-6.5,2.7-11.9,2.7c-10.1,0-16.6-7.2-16.6-18.3c0-13.7,8.8-18.6,17-18.6
					c5.5,0,8.8,1.3,10.6,2.3l5.5,3.1l1.8-6.1l2.6-8.8l1.2-4l-3.7-1.9C288.1,266.7,281.4,264.8,273.7,264.8L273.7,264.8z"/>
			</g>
			<g>
				<path class="st2" d="M341.6,335.9v-38.3c0-7.3-2.1-16-11.9-16c-6.6,0-11.2,4.8-12.8,9.6l0,0.1l0,0.1c-0.5,1.2-0.6,2.6-0.6,4.4
					v40.1h-16.3v-96.4h16.3v34.6c1.4-1.3,3-2.4,4.7-3.4c4-2.3,8.4-3.5,12.8-3.5c11.2,0,24.3,7.6,24.3,29.1v39.6H341.6z"/>
				<path class="st3" d="M313.8,242v38.9h0.3c1.8-3.2,4.6-6,8.1-8c3.3-1.9,7.3-3.2,11.6-3.2c8.4,0,21.8,5.1,21.8,26.6v37.1h-11.3
					v-35.8c0-10-3.7-18.5-14.4-18.5c-7.3,0-13.1,5.1-15.2,11.3c-0.6,1.5-0.8,3.2-0.8,5.4v37.6h-11.3V242H313.8 M318.8,237h-5h-11.3
					h-5v5v91.4v5h5h11.3h5v-5v-37.6c0-1.8,0.1-2.8,0.4-3.5l0.1-0.2l0.1-0.2c1.3-3.9,5.1-7.9,10.4-7.9c2.3,0,9.4,0,9.4,13.5v35.8v5h5
					h11.3h5v-5v-37.1c0-11-3.2-19.5-9.4-25.1c-4.6-4.2-10.9-6.6-17.4-6.6c-4.8,0-9.7,1.3-14,3.9c-0.3,0.2-0.6,0.3-0.9,0.5V242V237
					L318.8,237z"/>
			</g>
		</g>
		<g>
			<g>
				<path class="st2" d="M42.7,444.1c-8.6,0-18.3-2.4-23.5-6l-1.5-1l4.3-14.3l2.8,1.7c5.4,3.3,12.4,5.3,18.8,5.3
					c9.7,0,15.6-4.7,15.6-12.3c0-5.9-2.4-10.2-14.7-14.9c-16.5-5.8-24.5-14.7-24.5-26.9c0-15.3,12.6-26.1,30.6-26.1
					c10.7,0,17.4,2.9,20.4,4.6l1.8,1l-4.7,13.9l-2.6-1.4C62.1,366,56.8,364,50,364c-10.2,0-13.8,5.7-13.8,10.5
					c0,6.4,3.7,9.8,15.6,14.4c16.6,6.4,23.7,14.7,23.7,27.8C75.5,429.3,66.9,444.1,42.7,444.1z"/>
				<path class="st3" d="M50.4,352.2c8.9,0,15.3,2.1,19.2,4.2l-3.1,9.1c-2.8-1.5-8.6-4.1-16.5-4.1c-11.8,0-16.3,7.1-16.3,13
					c0,8.1,5.3,12.1,17.2,16.7c14.7,5.7,22.1,12.7,22.1,25.5c0,13.4-9.9,25-30.4,25c-8.4,0-17.5-2.4-22.1-5.5l2.8-9.4
					c5,3.1,12.4,5.7,20.1,5.7c11.5,0,18.1-6,18.1-14.8c0-8.1-4.6-12.7-16.3-17.2c-14.2-5-22.9-12.4-22.9-24.6
					C22.3,362.2,33.5,352.2,50.4,352.2 M50.4,347.2c-9.4,0-17.6,2.7-23.6,7.9c-6.1,5.2-9.5,12.5-9.5,20.6c0,13.4,8.6,23,26.2,29.3
					c12.1,4.7,13.1,8.4,13.1,12.6c0,2.9-1.3,9.8-13.1,9.8c-5.9,0-12.4-1.8-17.5-4.9l-5.5-3.4l-1.9,6.2l-2.8,9.4l-1.1,3.5l3.1,2.1
					c5.6,3.8,15.9,6.4,24.9,6.4c10.8,0,19.9-3,26.2-8.8c5.9-5.4,9.2-12.9,9.2-21.2c0-18.1-13.5-25.6-25.3-30.1
					c-12-4.7-14-7.5-14-12.1c0-5.9,5.9-8,11.3-8c6.3,0,11.1,1.9,14.1,3.5l5.2,2.9l1.9-5.6l3.1-9.1l1.3-3.9l-3.6-2
					C68.8,350.3,61.7,347.2,50.4,347.2L50.4,347.2z"/>
			</g>
			<g>
				<path class="st2" d="M127.2,442.9v-38.4c0-10.6-4-15.9-11.9-15.9c-6.8,0-11.3,4.9-12.8,9.8l0,0.1c-0.4,1.1-0.6,2.7-0.6,4.4v40
					H85.5v-47.9c0-6.9-0.2-11.9-0.5-16.7l-0.2-2.7h15.1l0.4,6.1c4.1-4.2,10.4-7.6,18.8-7.6c3.5,0,10.2,0.8,15.9,5.9
					c5.7,5.1,8.6,12.9,8.6,23.1v39.7H127.2z"/>
				<path class="st3" d="M119,376.6c8.6,0,22,5.1,22,26.5v37.2h-11.3v-35.9c0-10-3.7-18.4-14.4-18.4c-7.5,0-13.3,5.3-15.2,11.6
					c-0.5,1.4-0.8,3.3-0.8,5.3v37.5H88v-45.4c0-6.4-0.1-11.7-0.5-16.9h10l0.6,10.3h0.3C101.5,382.4,108.7,376.6,119,376.6
					 M119,371.6c-6.8,0-12.3,2-16.6,5l-0.2-3.6h-4.7h-10h-5.4l0.4,5.4c0.4,4.7,0.5,9.6,0.5,16.5v45.4v5h5h11.3h5v-5v-37.5
					c0-1.7,0.2-2.9,0.5-3.6l0-0.1l0-0.1c1.2-3.9,4.9-8,10.4-8c2.6,0,9.4,0,9.4,13.4v35.9v5h5H141h5v-5v-37.2
					C146,379.9,131.4,371.6,119,371.6L119,371.6z"/>
			</g>
			<g>
				<path class="st2" d="M156.9,442.9v-67.3h16.3v67.3H156.9z M164.8,370c-5.3,0-9.3-4.1-9.3-9.5c0-5.5,4.1-9.6,9.6-9.6
					c5.5,0,9.5,4,9.5,9.6c0.1,2.5-0.8,4.8-2.5,6.6C170.2,369,167.7,370,164.8,370z"/>
				<path class="st3" d="M165.1,353.5c4.2,0,7,3.1,7,7.1c0.1,3.9-2.7,7-7.2,7c-4,0-6.8-3.1-6.8-7C158,356.6,160.9,353.5,165.1,353.5
					 M170.7,378.1v62.3h-11.3v-62.3H170.7 M165.1,348.5c-6.8,0-12.1,5.3-12.1,12.1c0,6.7,5.2,12,11.8,12c3.5,0,6.7-1.3,9-3.6
					c2.2-2.2,3.3-5.2,3.2-8.4C177,353.6,171.8,348.5,165.1,348.5L165.1,348.5z M175.7,373.1h-5h-11.3h-5v5v62.3v5h5h11.3h5v-5v-62.3
					V373.1L175.7,373.1z"/>
			</g>
			<g>
				<path class="st2" d="M187,468.3v-69.9c0-7.8-0.2-14-0.5-20.2l-0.1-2.6h15.2l0.3,6.6c5.2-5.3,12-8,20.2-8
					c16.7,0,28.9,14.4,28.9,34.2c0,11.1-3.2,20.4-9.3,26.8c-5.5,5.9-13.2,9.1-21.5,9.1c-6.6,0-12.6-2.1-16.9-5.8v29.9H187z
					 M203.7,419.1c1.8,6.8,7.7,11.3,14.5,11.3c10.1,0,16.4-8.3,16.4-21.6c0-10.3-5-20.7-16-20.7c-6.8,0-12.9,5-14.7,12.2
					c-0.3,1.1-0.7,2.7-0.7,4V415C203.2,416.4,203.4,417.8,203.7,419.1z"/>
				<path class="st3" d="M222.1,376.6c15.1,0,26.4,12.7,26.4,31.7c0,22.4-13.6,33.5-28.3,33.5c-8.2,0-15.4-3.6-19.2-9.8h-0.3v33.9
					h-11.2v-67.4c0-8-0.3-14.4-0.5-20.3h10.2l0.5,10.7h0.3C204.6,381.1,211.9,376.6,222.1,376.6 M218.2,432.9
					c12,0,18.9-9.8,18.9-24.1c0-12.5-6.6-23.2-18.5-23.2c-7.7,0-14.9,5.5-17.1,14c-0.4,1.4-0.8,3.1-0.8,4.6V415
					c0,1.7,0.3,3.2,0.5,4.6C203.3,427.5,210.1,432.9,218.2,432.9 M222.1,371.6c-6.9,0-13,1.8-18,5.3l-0.2-3.9h-4.8H189h-5.2l0.2,5.2
					c0.3,6.2,0.5,12.4,0.5,20.1v67.4v5h5h11.2h5v-5v-22.7c4.2,2.3,9.1,3.6,14.4,3.6c9,0,17.3-3.5,23.3-9.9c6.6-7,10-16.8,10-28.6
					C253.5,387.1,240.3,371.6,222.1,371.6L222.1,371.6z M206.1,418.5c-0.2-1.2-0.4-2.4-0.4-3.5v-10.7c0-1,0.3-2.4,0.6-3.3l0,0l0,0
					c1.6-6.1,6.6-10.3,12.3-10.3c9.3,0,13.5,9.1,13.5,18.2c0,4.5-1,19.1-13.9,19.1C212.5,427.9,207.7,424.1,206.1,418.5L206.1,418.5
					z"/>
			</g>
			<g>
				<path class="st2" d="M260.2,468.3v-69.9c0-7.8-0.2-14-0.5-20.2l-0.1-2.6h15.2l0.3,6.6c5.2-5.3,12-8,20.2-8
					c16.7,0,28.9,14.4,28.9,34.2c0,11.1-3.2,20.4-9.3,26.8c-5.5,5.9-13.2,9.1-21.5,9.1c-6.6,0-12.6-2.1-16.9-5.8v29.9H260.2z
					 M276.9,419.1c1.8,6.8,7.6,11.3,14.5,11.3c10.1,0,16.4-8.3,16.4-21.6c0-10.3-5-20.7-16-20.7c-6.8,0-12.9,5-14.7,12.2
					c-0.3,1.2-0.7,2.7-0.7,4V415C276.4,416.4,276.7,417.7,276.9,419.1z"/>
				<path class="st3" d="M295.3,376.6c15.1,0,26.4,12.7,26.4,31.7c0,22.4-13.6,33.5-28.3,33.5c-8.2,0-15.4-3.6-19.2-9.8h-0.3v33.9
					h-11.2v-67.4c0-8-0.3-14.4-0.5-20.3h10.2l0.5,10.7h0.3C277.8,381.1,285.1,376.6,295.3,376.6 M291.4,432.9
					c12,0,18.9-9.8,18.9-24.1c0-12.5-6.6-23.2-18.5-23.2c-7.7,0-14.9,5.5-17.1,14c-0.4,1.4-0.8,3.1-0.8,4.6V415
					c0,1.7,0.3,3.2,0.5,4.6C276.5,427.5,283.3,432.9,291.4,432.9 M295.3,371.6c-6.9,0-13,1.8-18,5.3l-0.2-3.9h-4.8h-10.2H257
					l0.2,5.2c0.3,6.2,0.5,12.4,0.5,20.1v67.4v5h5h11.2h5v-5v-22.7c4.2,2.3,9.1,3.6,14.4,3.6c9,0,17.3-3.5,23.3-9.9
					c6.6-7,10-16.8,10-28.6C326.7,387.1,313.5,371.6,295.3,371.6L295.3,371.6z M279.3,418.5c-0.2-1.2-0.4-2.4-0.4-3.5v-10.7
					c0-1,0.3-2.4,0.6-3.3l0,0l0,0c1.6-6.1,6.6-10.3,12.3-10.3c9.3,0,13.5,9.1,13.5,18.2c0,4.5-1,19.1-13.9,19.1
					C285.7,427.9,280.9,424.1,279.3,418.5L279.3,418.5z"/>
			</g>
			<g>
				<path class="st2" d="M362.1,444.1c-20.1,0-33.1-13.3-33.1-33.9c0-21.2,13-36.1,31.7-36.1c19.5,0,28.2,16,28.2,31.8
					c0,2.1-0.2,3.9-0.3,5l-0.3,2.7h-43.4c1.5,14.9,13.4,16.6,18.7,16.6c8,0,12.6-1.5,16.3-3l2.7-1.2l3.1,13l-1.9,0.8
					C379.7,441.9,372.6,444.1,362.1,444.1z M372.9,400.7c-0.3-2.8-1.2-7.1-4.1-10c-2.2-2.2-5.2-3.4-9-3.4c-4.5,0-12.1,2.9-14.4,13.4
					H372.9z"/>
				<path class="st3" d="M360.7,376.6c20.3,0,25.7,17.9,25.7,29.3c0,2.3-0.3,4.1-0.4,5.3h-43.8c0.3,15.3,10,21.6,21.4,21.6
					c8.1,0,13-1.4,17.2-3.2l1.9,8.1c-4,1.8-10.8,3.9-20.7,3.9c-19.2,0-30.6-12.6-30.6-31.4C331.5,391.4,342.5,376.6,360.7,376.6
					 M342.4,403.2h33.1c0.1-7.2-3-18.4-15.7-18.4C348.3,384.8,343.3,395.3,342.4,403.2 M360.7,371.6c-10.1,0-19.1,4.1-25.3,11.6
					c-5.8,6.9-9,16.5-9,27c0,10.6,3.3,19.7,9.5,26.2c6.4,6.7,15.4,10.2,26.1,10.2c10.9,0,18.4-2.3,22.8-4.3l3.8-1.7l-1-4l-1.9-8.1
					l-1.4-5.8l-5.4,2.3c-3.5,1.5-7.7,2.8-15.3,2.8c-10.6,0-14.5-6-15.8-11.6H386h4.5l0.5-4.4l0.1-0.5c0.1-1.2,0.4-3,0.4-5.3
					C391.4,388.9,381.9,371.6,360.7,371.6L360.7,371.6z M348.8,398.2c0.6-1.5,1.4-2.9,2.3-4.1c2.2-2.9,5.1-4.3,8.7-4.3
					c3.1,0,5.5,0.9,7.2,2.6c1.5,1.5,2.4,3.6,2.9,5.8H348.8L348.8,398.2z"/>
			</g>
			<g>
				<path class="st2" d="M419.6,444.1c-6,0-10.9-1.9-14.1-5.6c-3.4-3.6-5-9.3-5-17.9v-31.5h-9.7v-13.6h9.7v-14.3l16.1-4.3v18.6h16.2
					v13.6h-16.2v31.1c0,8.9,3,9.6,6,9.6c2.8,0,4.8-0.4,5.9-0.7l3-0.8l0.8,13.3l-1.7,0.7C427.9,443.5,424,444.1,419.6,444.1z"/>
				<path class="st3" d="M414.1,360.2v17.9h16.2v8.6h-16.2v33.6c0,7.7,2.2,12.1,8.5,12.1c3,0,5.1-0.4,6.6-0.8l0.5,8.5
					c-2.2,0.9-5.7,1.5-10,1.5c-5.3,0-9.5-1.7-12.2-4.8c-3.2-3.3-4.4-8.9-4.4-16.2v-34h-9.7v-8.6h9.7v-14.9L414.1,360.2 M419.1,353.7
					l-6.3,1.7l-11.1,3l-3.7,1v3.8v9.9h-4.7h-5v5v8.6v5h5h4.7v29c0,9.3,1.8,15.5,5.7,19.6c3.7,4.2,9.2,6.4,15.9,6.4
					c4.7,0,8.9-0.7,11.9-1.9l3.3-1.4l-0.2-3.6l-0.5-8.5l-0.4-6.1l-5.9,1.6c-0.8,0.2-2.6,0.6-5.2,0.6c-1.7,0-3.5,0-3.5-7.1v-28.6
					h11.2h5v-5v-8.6v-5h-5h-11.2v-12.9V353.7L419.1,353.7z"/>
			</g>
			<g>
				<path class="st2" d="M456.2,444.1c-7,0-13.8-1.7-18.8-4.6l-1.7-1l4.5-13.6l2.7,1.8c3.1,2,8.5,4.1,13.6,4.1
					c6.1,0,9.6-2.5,9.6-6.8c0-3.6-1.5-6-10-9.1c-15-5.3-18.1-13.8-18.1-20c0-12,10.1-20.8,24-20.8c5.9,0,12.1,1.6,16.6,4.2l1.8,1
					l-4.5,13.2l-2.7-1.7c-1.5-1-5.7-3.2-11.4-3.2c-4.8,0-7.9,2.4-7.9,6c0,3,1.4,4.9,10.2,8.2c8.4,3.2,18,8.5,18,21.1
					C482,435.8,471.9,444.1,456.2,444.1z"/>
				<path class="st3" d="M462,376.6c6.3,0,11.8,1.8,15.3,3.9l-2.8,8.2c-2.4-1.5-7-3.6-12.7-3.6c-6.7,0-10.4,3.9-10.4,8.5
					c0,5.1,3.7,7.5,11.8,10.6c10.8,4.1,16.3,9.5,16.3,18.8c0,10.9-8.5,18.7-23.3,18.7c-6.8,0-13.1-1.7-17.5-4.2l2.8-8.6
					c3.3,2.2,9.3,4.5,14.9,4.5c8.2,0,12.1-4.1,12.1-9.3c0-5.4-3.2-8.4-11.6-11.5c-11.2-4-16.5-10.2-16.5-17.6
					C440.5,384.9,448.6,376.6,462,376.6 M462,371.6c-15.4,0-26.5,9.8-26.5,23.3c0,7,3.4,16.5,19.8,22.3c8.3,3.1,8.3,4.9,8.3,6.8
					c0,3.5-3.9,4.3-7.1,4.3c-4.5,0-9.5-1.9-12.2-3.7l-5.5-3.6l-2,6.2l-2.8,8.6l-1.3,3.8l3.5,2c5.3,3.1,12.6,4.9,20,4.9
					c8.3,0,15.4-2.2,20.4-6.4c5.1-4.2,7.9-10.4,7.9-17.3c0-14.4-11.2-20.3-19.6-23.5c-8.6-3.3-8.6-4.5-8.6-5.9
					c0-2.6,2.8-3.5,5.4-3.5c5,0,8.7,2,10.1,2.8l5.3,3.4l2.1-6l2.8-8.2l1.3-3.9l-3.5-2.1C474.9,373.3,468.4,371.6,462,371.6
					L462,371.6z"/>
			</g>
		</g>
	</g>
</g>
</svg>
